<svg width="40" height="40" viewBox="0 0 40 40" fill="none" xmlns="http://www.w3.org/2000/svg">
<path d="M5.7627 15.5934H34.237V27.1187C34.237 29.3654 32.4157 31.1865 30.1693 31.1865H9.83045C7.58372 31.1865 5.7627 29.3654 5.7627 27.1187V15.5934Z" fill="#26BED6"/>
<path d="M3.05124 15.5934H5.76311V18.3052H3.05124C2.30211 18.3052 1.69531 17.6981 1.69531 16.9493C1.69531 16.2005 2.30211 15.5934 3.05124 15.5934Z" fill="#003C71"/>
<path d="M34.2373 15.5934H36.9492C37.698 15.5934 38.3051 16.2005 38.3051 16.9493C38.3051 17.6981 37.698 18.3052 36.9492 18.3052H34.2373V15.5934Z" fill="#003C71"/>
<path d="M9.09279 7.6969L29.0929 4.00089C31.3023 3.59239 33.4239 5.05259 33.8324 7.26158L5.8321 12.436C5.42393 10.2267 6.88379 8.10506 9.09279 7.6969Z" fill="#26BED6"/>
<path d="M15.4405 1.0087L20.7739 0.022869C21.5101 -0.113188 22.2175 0.373438 22.3536 1.11C22.4896 1.84623 22.003 2.55366 21.2668 2.68971L15.9331 3.67521C15.1969 3.81127 14.4894 3.32464 14.3534 2.58841C14.2173 1.85185 14.7039 1.14476 15.4405 1.0087Z" fill="#003C71"/>
<path d="M16.6001 3.55201L20.6004 2.81281L21.093 5.47965L17.093 6.21886L16.6001 3.55201Z" fill="#003C71"/>
<path d="M16.6106 39.322C15.487 39.322 14.5767 38.4114 14.5767 37.2881C14.5767 36.8482 14.7193 36.4198 14.9832 36.0679L16.6106 33.8983L18.2376 36.0679C18.5015 36.4198 18.6445 36.8482 18.6445 37.2881C18.6445 38.4114 17.7338 39.322 16.6106 39.322Z" fill="#E52822"/>
<path d="M9.83077 39.322C8.70723 39.322 7.79688 38.4114 7.79688 37.2881C7.79688 36.8482 7.93955 36.4198 8.20339 36.0679L9.83077 33.8983L11.4578 36.0679C11.7217 36.4198 11.8647 36.8482 11.8647 37.2881C11.8647 38.4114 10.954 39.322 9.83077 39.322Z" fill="#E52822"/>
<path d="M23.3899 39.322C22.2663 39.322 21.356 38.4114 21.356 37.2881C21.356 36.8482 21.4986 36.4198 21.7625 36.0679L23.3899 33.8983L25.0169 36.0679C25.2808 36.4198 25.4238 36.8482 25.4238 37.2881C25.4238 38.4114 24.5131 39.322 23.3899 39.322Z" fill="#E52822"/>
<path d="M30.1696 39.322C29.0461 39.322 28.1357 38.4114 28.1357 37.2881C28.1357 36.8482 28.2784 36.4198 28.5423 36.0679L30.1696 33.8983L31.7967 36.0679C32.0605 36.4198 32.2035 36.8482 32.2035 37.2881C32.2035 38.4114 31.2928 39.322 30.1696 39.322Z" fill="#E52822"/>
<path d="M5.7627 38.644H34.237V40H5.7627V38.644Z" fill="#003C71"/>
<path d="M22.7124 15.5934V19.6612C22.7124 20.41 23.3192 21.0171 24.0683 21.0171C24.8171 21.0171 25.4243 20.41 25.4243 19.6612C25.4243 18.9124 26.0311 18.3053 26.7802 18.3053C27.529 18.3053 28.1361 18.9124 28.1361 19.6612V22.3731C28.1361 23.1219 28.7429 23.729 29.4921 23.729C30.2409 23.729 30.848 23.1219 30.848 22.3731V15.5934H22.7124Z" fill="#F79321"/>
</svg>
