<svg xmlns="http://www.w3.org/2000/svg" width="40" height="40" fill="none" viewBox="0 0 40 40">
    <path fill="#3DDDF7" d="M35.328 4.68L19.19 2.807 0 21.972l17.99 18.013L37.18 20.82 35.328 4.68z"/>
    <path fill="#26BED6" d="M9.015 30.998l8.975 8.987L37.18 20.82 35.328 4.685 9.015 30.998z"/>
    <path fill="#003C71" d="M28.688 9.62L38.343.018l1.652 1.66-9.656 9.602-1.651-1.66z"/>
    <path fill="#001930" d="M29.541 10.472l.802.807L40 1.676l-.829-.834-9.63 9.63z"/>
    <path fill="#fff" d="M30.362 9.638c-.626-.627-1.459-.972-2.345-.972-.884 0-1.716.344-2.342.969-.626.625-.971 1.457-.972 2.342 0 .886.344 1.718.97 2.345.626.627 1.458.972 2.344.972.885 0 1.716-.344 2.342-.97.626-.625.972-1.457.972-2.342.001-.885-.343-1.718-.969-2.344zM9.996 21.726l15.995-2.294.332 2.319-15.994 2.294-.333-2.319z"/>
    <path fill="#fff" d="M25.985 19.433l-6.309.904-2.762 2.762 9.403-1.347-.332-2.319zM18.202 19.195c-.864 0-1.675-.336-2.286-.946-.61-.61-.946-1.422-.946-2.285 0-.864.336-1.675.946-2.286.61-.61 1.422-.947 2.286-.947.863 0 1.675.337 2.285.947.61.61.947 1.422.947 2.285 0 .864-.336 1.675-.947 2.286-.61.61-1.422.947-2.285.947zm0-4.121c-.238 0-.461.092-.63.26-.167.168-.26.392-.26.63 0 .237.093.46.26.629.169.168.392.26.63.26.237 0 .46-.092.629-.26.168-.168.26-.392.26-.63 0-.237-.092-.46-.26-.629-.168-.168-.392-.26-.63-.26z"/>
    <path fill="#FF3D7D" d="M18.345 30.678c-.863 0-1.675-.336-2.285-.946-.61-.61-.947-1.422-.947-2.286 0-.863.337-1.675.947-2.285.61-.61 1.422-.947 2.285-.947.864 0 1.675.337 2.286.947 1.26 1.26 1.26 3.31 0 4.57-.61.611-1.422.947-2.286.947zm0-4.122c-.237 0-.46.093-.629.261-.168.168-.26.392-.26.63 0 .237.092.46.26.629.168.168.392.26.63.26.237 0 .46-.093.628-.26.347-.348.347-.912 0-1.259-.168-.168-.391-.26-.629-.26z"/>
    <path fill="#fff" d="M18.345 30.678c-.863 0-1.675-.336-2.285-.946-.61-.61-.947-1.422-.947-2.286 0-.863.337-1.675.947-2.285.61-.61 1.422-.947 2.285-.947.864 0 1.675.337 2.286.947 1.26 1.26 1.26 3.31 0 4.57-.61.611-1.422.947-2.286.947zm0-4.122c-.237 0-.46.093-.629.261-.168.168-.26.392-.26.63 0 .237.092.46.26.629.168.168.392.26.63.26.237 0 .46-.093.628-.26.347-.348.347-.912 0-1.259-.168-.168-.391-.26-.629-.26z"/>
</svg>
