<svg xmlns="http://www.w3.org/2000/svg" width="40" height="40" fill="none" viewBox="0 0 40 40">
    <g clip-path="url(#prefix__clip0)">
        <path fill="#48C1E1" d="M8.795 5.744H4.75v2.699h4.045v-2.7z"/>
        <path fill="#046699" d="M9.63 5.447c0 .22-.181.402-.403.402H4.318c-.221 0-.402-.181-.402-.402V2.546c0-.221.181-.402.402-.402h4.91c.22 0 .401.18.401.402v2.9z"/>
        <path fill="#000" d="M5.594 5.447V2.546c0-.221.181-.402.403-.402H4.318c-.221 0-.402.18-.402.402v2.9c0 .222.181.403.402.403h1.679c-.222 0-.403-.181-.403-.402z" opacity=".1"/>
        <path fill="#A2DFF9" d="M3.496 27.624c.021-.009.037-.026.044-.047.008-.021.006-.045-.005-.064-.034-.06-.05-.118-.05-.173 0-.43.955-.892 2.377-.892.458 0 .904.051 1.29.148l.018.002c.021 0 .04-.008.056-.023.02-.02.027-.047.02-.074-.248-.99-.39-2.009-.423-3.05l-.002-.036c-.005-.148-.007-.297-.007-.447 0-.18.146-.327.326-.327h.706c.022 0 .043-.009.058-.026.015-.016.022-.038.02-.06-.012-.104-.017-.19-.017-.273 0-1.1.704-2.062 1.751-2.392.022-.007.04-.023.048-.043.01-.021.009-.045 0-.065-.096-.199-.163-.406-.2-.617-.182-1.053.37-2.102 1.34-2.55.037-.017.055-.059.041-.097-.045-.128-.08-.259-.102-.39-.149-.854.186-1.683.805-2.208v-3.355c0-1.235-1.008-2.246-2.24-2.246H4.195c-1.232 0-2.24 1.01-2.24 2.246v17.99c.449-.378.966-.695 1.54-.931z"/>
        <path fill="#046699" d="M9.658 19.89c.022-.007.04-.023.049-.044.009-.02.008-.044-.002-.064-.095-.199-.162-.407-.198-.617-.183-1.053.368-2.102 1.34-2.55.036-.017.054-.06.04-.097-.045-.128-.08-.26-.102-.39-.148-.855.186-1.683.805-2.208v-1.51H1.956v8.312h6.493c.303-.382.718-.677 1.21-.832z"/>
        <path fill="#000" d="M4.375 26.65V10.565c0-1.235 1.008-2.246 2.24-2.246H4.197c-1.232 0-2.24 1.01-2.24 2.246v17.99c.449-.378.966-.695 1.54-.931.021-.009.037-.026.044-.047.008-.021.006-.045-.005-.064-.034-.06-.05-.117-.05-.173 0-.253.33-.516.89-.69z" opacity=".1"/>
        <path fill="#EF5050" d="M18.948 14.707c.023.13.034.265.035.401 0 .04.03.075.07.078 1.001.088 1.837.8 2.082 1.773.007.027.027.048.053.056.008.002.015.003.023.003.02 0 .038-.007.053-.02.407-.38.915-.61 1.466-.661.04-.004.07-.036.071-.076.036-1.095.481-2.125 1.255-2.9.016-.017.033-.032.05-.048-.172-1.09-.675-2.139-1.512-2.977-.164-.165-.43-.165-.596 0l-3.43 3.437c.188.273.32.589.38.934z"/>
        <path fill="#C0272D" d="M21.135 16.96c.007.026.027.047.054.055.007.002.015.003.022.003.02 0 .039-.007.053-.02.2-.186.422-.335.663-.446-.027-.09-.076-.174-.146-.245l-.57-.57c-.228-.229-.599-.23-.828 0-.002 0-.003.002-.005.004.365.31.635.732.757 1.218zM22.354 15.225h-.805c-.323 0-.586-.262-.586-.586 0-.323.263-.586.586-.586h.805c.323 0 .586.263.586.586 0 .324-.263.586-.586.586zM21.436 13.606c-.15 0-.3-.057-.414-.17-.229-.23-.23-.6 0-.83l.568-.57c.229-.229.6-.23.829 0 .229.228.23.6 0 .828l-.568.57c-.115.115-.265.172-.415.172z"/>
        <path fill="#89C947" d="M28.781 12.411c-.006-.018-.017-.034-.03-.047-.014-.014-.03-.024-.048-.031-1.622-.646-3.468-.265-4.703.972-.82.822-1.263 1.915-1.279 3.032.081-.008.164-.012.247-.012 1.215 0 2.23.873 2.455 2.026.886-.145 1.725-.562 2.388-1.226 1.234-1.237 1.615-3.088.97-4.714z"/>
        <path fill="#D5E962" d="M26.676 14.443c-.229-.228-.6-.228-.828.001l-2.027 2.032c.382.139.722.37.991.665l1.865-1.87c.229-.228.228-.6 0-.828z"/>
        <path fill="#FFC502" d="M29.623 19.122c.02.118.03.24.03.361.001.04.032.074.072.078.317.028.62.126.899.292.012.007.026.011.04.011.021 0 .043-.01.059-.027.066-.076.123-.138.18-.194.471-.473 1.041-.81 1.663-.994.058-.216.09-.443.09-.677 0-1.429-1.155-2.587-2.58-2.587-1.216 0-2.235.843-2.508 1.977 1.019.018 1.88.751 2.055 1.76zM11.938 22.585c-.261-.463-.427-.972-.49-1.495-.762-.125-1.408-.612-1.74-1.297-1.084.306-1.88 1.304-1.88 2.49 0 .102.008.203.02.302h4.09z"/>
        <path fill="#89C947" d="M31.632 21.314c.076.435.016.874-.173 1.271h3.316c.783-1.1.973-2.535.463-3.819-.006-.016-.016-.031-.028-.043-.012-.013-.027-.022-.043-.029-1.49-.593-3.186-.243-4.32.893-.082.083-.16.17-.234.259.526.309.91.837 1.02 1.468z"/>
        <path fill="#D5E962" d="M31.459 22.585h.725l1.155-1.158c.229-.229.228-.6 0-.829-.23-.228-.6-.228-.83.001l-.857.86c.04.387-.025.773-.193 1.126z"/>
        <path fill="#368C0E" d="M21.225 17.004c-.235-1.052-1.126-1.804-2.164-1.896 0-.136-.011-.275-.036-.415-.23-1.327-1.494-2.216-2.824-1.985-.69.12-1.262.519-1.62 1.06-.52-.388-1.192-.57-1.882-.45-1.33.231-2.222 1.495-1.991 2.823.024.14.06.274.106.403-.981.453-1.577 1.52-1.384 2.634.182 1.053 1.015 1.829 2.015 1.99-.097-.671-.02-1.364.24-2.018.002-.007.006-.012.011-.017.005-.005.01-.009.017-.011.466-.186.955-.28 1.454-.28 1.05 0 2.038.41 2.781 1.155.054.054.105.11.156.167-.042-.27-.063-.544-.063-.822 0-.19.154-.344.343-.344h4.09c-.003-.055-.005-.11-.005-.165 0-.714.288-1.36.756-1.829z"/>
        <path fill="#89C947" d="M12.668 17.233h-.01c-.323-.005-.581-.272-.576-.596.017-1.014.85-1.828 1.861-1.828h.03c.51.008 1 .228 1.343.605.218.239.201.61-.038.827-.239.219-.61.202-.827-.037-.13-.141-.305-.22-.497-.223-.38-.006-.694.297-.7.676-.006.32-.267.576-.586.576zM15.903 18.241c-.068 0-.137-.011-.204-.037-.303-.112-.458-.45-.345-.753.327-.88 1.31-1.333 2.192-1.008.439.162.795.502.978.933.127.297-.012.642-.31.768-.297.127-.642-.012-.768-.31-.058-.136-.167-.24-.306-.291-.277-.102-.585.04-.688.316-.087.236-.311.382-.55.382z"/>
        <path fill="#368C0E" d="M25.465 18.992h-.021v.016h.784c.233 0 .422.19.422.422 0 1.178-.38 2.267-1.02 3.155h5.914c.176-.389.244-.832.165-1.285-.174-1.005-1.005-1.732-1.977-1.817 0-.124-.01-.25-.032-.375-.208-1.2-1.35-2.002-2.55-1.793-.624.108-1.14.469-1.464.957-.105-.078-.218-.146-.335-.205.077.242.12.5.12.767 0 .051-.002.103-.006.158z"/>
        <path fill="#F7931E" d="M25.542 18.998c.004-.054.006-.11.006-.164 0-1.429-1.155-2.587-2.58-2.587s-2.58 1.158-2.58 2.587c0 .055.002.11.005.164h5.15z"/>
        <path fill="#89C947" d="M16.003 19.942c-1.133-1.136-2.829-1.486-4.32-.893-.015.007-.03.016-.042.029-.012.012-.022.027-.029.043-.456 1.15-.351 2.421.237 3.464h5.32c-.54-.718-.905-1.573-1.033-2.503-.043-.047-.087-.094-.133-.14z"/>
        <path fill="#D5E962" d="M14.313 22.585h1.655l-1.627-1.63c-.229-.23-.6-.23-.829-.002-.23.229-.23.6-.001.829l.802.803z"/>
        <path fill="#EF5050" d="M25.67 22.585c.678-.904 1.083-2.026 1.083-3.243 0-.233-.189-.422-.422-.422h-9.947c-.233 0-.422.19-.422.422 0 1.217.405 2.339 1.084 3.243h8.623z"/>
        <path fill="#C0272D" d="M21.965 22.585v-.405c0-.324-.262-.586-.586-.586-.324 0-.586.262-.586.586v.405h1.172zM23.09 22.585H24c.189-.23.176-.57-.038-.785l-.57-.57c-.228-.229-.599-.23-.828 0-.229.228-.23.599 0 .828l.525.527zM19.576 22.585l.526-.527c.229-.23.229-.6 0-.829-.23-.228-.6-.228-.83.001l-.568.57c-.215.215-.227.555-.039.785h.911zM18.676 21.005h-.805c-.324 0-.586-.262-.586-.586 0-.324.262-.586.586-.586h.805c.323 0 .586.262.586.586 0 .323-.263.586-.586.586zM24.844 21.005h-.805c-.323 0-.585-.262-.585-.586 0-.324.262-.586.585-.586h.805c.324 0 .586.262.586.586 0 .323-.262.586-.586.586z"/>
        <path fill="#E6E9ED" d="M7.264 26.625l.021.003c.017 0 .034-.005.047-.016.02-.014.031-.037.031-.062v-.992c0-.28.228-.507.508-.507s.508.227.508.507v.992c0 .024.011.047.03.062.014.01.031.016.048.016.007 0 .014 0 .021-.003.411-.116.896-.177 1.402-.177 1.422 0 2.378.461 2.378.892 0 .055-.017.114-.05.173-.012.02-.014.043-.006.064.007.021.023.038.044.046 1.82.751 3.111 2.343 3.367 4.156.004.023.018.044.038.056.012.007.026.011.04.011.01 0 .018-.002.027-.005l12.334-4.686c.24-.09.49-.136.745-.136.358 0 .712.092 1.023.267.543.303.918.826 1.031 1.435l.108.58c.004.025.02.047.044.057.01.005.021.007.032.007.014 0 .028-.003.04-.01l4.147-2.449c.356-1.27.537-2.586.537-3.938 0-.224-.181-.405-.404-.405H7.14c-.223 0-.404.181-.404.405 0 1.246.154 2.462.457 3.639l.07.018z"/>
        <path fill="#000" d="M7.264 26.625l.021.003c.017 0 .034-.005.047-.016.02-.014.031-.037.031-.062v-.992c0-.28.228-.507.508-.507s.508.227.508.507v.992c0 .024.011.047.03.062.014.01.031.016.048.016.007 0 .014 0 .021-.003.352-.099.758-.158 1.185-.173-.277-1.128-.417-2.293-.417-3.484 0-.224.18-.405.404-.405H7.14c-.223 0-.404.181-.404.405 0 1.246.154 2.462.457 3.639l.07.018z" opacity=".1"/>
        <path fill="#89C947" d="M7.87 26.904c.161-.09.36-.168.587-.232v-1.113c0-.324-.262-.586-.586-.586-.324 0-.586.262-.586.586v1.113c.227.064.426.142.586.232z"/>
        <path fill="#EF5050" d="M13.857 37.778H11.74c-1.008 0-1.871-.716-2.054-1.702l-.02-.112c-.184-.987.367-1.963 1.309-2.32l4.727-1.796c-.243-1.948-1.615-3.578-3.5-4.327-.182.308-.812.575-1.632.671-.03.004-.057.026-.066.056-.008.03.002.063.027.083.425.34.691.698.714.958.008.095-.015.171-.071.234-.1.113-.296.172-.567.172-.527 0-1.24-.22-1.908-.59-.294-.162-.555-.34-.777-.529-.015-.012-.033-.018-.05-.018-.019 0-.037.006-.051.018-.223.189-.484.367-.778.53-.667.369-1.38.59-1.908.59-.27 0-.467-.06-.566-.173-.056-.063-.08-.14-.072-.234.023-.26.29-.618.714-.958.025-.02.035-.052.027-.083-.009-.03-.035-.052-.066-.056-.82-.096-1.45-.364-1.632-.671-2.082.827-3.54 2.73-3.54 4.948 0 2.975 2.624 5.387 5.86 5.387h8.124c.088 0 .02-.03-.127-.078z"/>
        <path fill="#000" d="M2.535 32.469c0-1.767.926-3.336 2.355-4.318-.68-.12-1.19-.359-1.35-.63-2.082.826-3.54 2.73-3.54 4.948 0 2.975 2.624 5.387 5.86 5.387h2.535c-3.236 0-5.86-2.412-5.86-5.387z" opacity=".1"/>
        <path fill="#368C0E" d="M12.336 27.34c0-.536-1.1-.97-2.456-.97-.83 0-1.565.163-2.01.413-.443-.25-1.177-.413-2.008-.413-1.357 0-2.456.434-2.456.97 0 .44.74.81 1.756.93-.62.497-.905 1.02-.652 1.305.335.378 1.486.199 2.57-.402.305-.168.572-.352.79-.537.22.185.487.369.79.537 1.085.6 2.236.78 2.572.402.253-.286-.031-.808-.653-1.305 1.016-.12 1.757-.49 1.757-.93z"/>
        <path fill="#89C947" d="M39.99 30.81l-.157-.85c-.054-.292-.336-.486-.63-.432l-6.073 1.116 3.877-2.592c.184-.123.27-.34.231-.546-.01-.057-.03-.113-.06-.167l-.44-.777c-.07-.126-.19-.22-.331-.257-.141-.037-.291-.017-.417.058l-5.044 2.977.954 5.152 5.786 1.04c.144.025.293-.008.412-.093.119-.085.198-.215.22-.36l.13-.877c.01-.06.008-.12-.002-.177-.038-.206-.196-.378-.412-.428l-4.55-1.043 6.072-1.116c.295-.054.489-.335.435-.628z"/>
        <path fill="#F7931E" d="M9.61 36.09c.189 1.024 1.085 1.767 2.13 1.766l18.28-.007c.643 0 1.253-.285 1.664-.777.412-.493.582-1.142.465-1.772l-1.22-6.593c-.117-.63-.51-1.175-1.07-1.49-.561-.313-1.233-.363-1.834-.134L10.947 33.57c-.977.371-1.548 1.384-1.359 2.408l.021.112z"/>
        <path fill="#000" d="M9.61 36.09c.028.157.076.307.136.45.252-.448.657-.81 1.168-1.005l17.835-6.775c.628-.239 1.33-.187 1.915.14.123.07.238.15.344.239l-.08-.432c-.117-.63-.508-1.175-1.07-1.49-.56-.313-1.232-.363-1.833-.134L10.947 33.57c-.977.371-1.548 1.384-1.359 2.408l.021.112z" opacity=".1"/>
        <path fill="#FFC502" d="M28.971 35.109c-.06-.318-.368-.526-.685-.466-.318.061-.526.368-.465.686l.482 2.521h1.193l-.524-2.741zM25.796 35.803c-.06-.318-.367-.527-.685-.467-.318.06-.527.366-.467.684l.345 1.831h1.193l-.386-2.048zM22.69 31.39c.068.266.306.443.569.443.047 0 .095-.006.143-.018.314-.079.504-.397.425-.711l-.558-2.215-1.102.42.524 2.081zM19.642 35.293c-.058-.319-.362-.53-.68-.473-.32.057-.531.362-.474.68l.425 2.353h1.19l-.461-2.56zM13.73 34.197c.059.277.302.466.574.466.04 0 .08-.004.12-.013.317-.066.52-.377.454-.693l-.366-1.741-1.109.421.328 1.56z"/>
    </g>
    <defs>
        <clipPath id="prefix__clip0">
            <path fill="#fff" d="M0 0H40V40H0z"/>
        </clipPath>
    </defs>
</svg>
