<svg xmlns="http://www.w3.org/2000/svg" width="40" height="40" fill="none" viewBox="0 0 40 40">
    <g clip-path="url(#prefix__clip0)">
        <path fill="#F29C1F" d="M9.655 35.861c-1.523 0-2.759-3.087-2.759-6.896 0-3.81 1.236-6.897 2.76-6.897 1.378 0 4.137 1.38 6.206 1.38 1.523 0 2.759 2.778 2.759 6.207 0 3.428-1.236 6.206-2.759 6.206H9.655z"/>
        <path fill="#E57E25" d="M13.793 33.793c-.239 0-.46-.124-.586-.327-.126-.204-.137-.457-.03-.671 1.237-2.475-.024-6.332-.037-6.37-.078-.235-.025-.492.139-.677.164-.184.414-.267.655-.218.242.05.439.225.517.459.06.18 1.453 4.442-.037 7.422-.117.235-.358.383-.62.382z"/>
        <path fill="#26B99A" d="M10.143 28.477c-1.273-1.113-2.807-1.887-4.459-2.25-1.826-.46-3.76-.177-5.38.785-.309.213-.39.636-.182.95.208.313.628.401.945.199 1.298-.74 2.83-.953 4.281-.596.529.131 1.046.302 1.548.512-2.542.199-4.924 1.323-6.695 3.16-.179.172-.25.429-.188.67.063.24.252.43.493.492.24.063.497-.008.67-.188 1.57-1.634 3.696-2.622 5.958-2.767-2.35 1.43-4.132 3.631-5.04 6.228l-.232.82 1.327.379.234-.82c1.097-3 3.47-5.36 6.476-6.44.22-.08.384-.269.434-.498.05-.229-.021-.468-.188-.633l-.002-.003z"/>
        <path fill="#BDBDBD" d="M17.604 8.873l2.966 2.966-1.95 1.95-2.967-2.966 1.95-1.95z"/>
        <path fill="#003C71" d="M39.31 35.862H.69c-.381 0-.69.309-.69.69v2.758c0 .381.309.69.69.69h38.62c.381 0 .69-.309.69-.69v-2.759c0-.38-.309-.69-.69-.69z"/>
        <path fill="#BDBDBD" d="M20.064 11.33l16.652 16.653c-3.231 3.232-8.47 3.232-11.702 0l-9.826-9.826c-.539-.539-.539-1.412 0-1.95l4.876-4.876z"/>
        <path fill="#26BED6" d="M18.11 9.386l-2.924 2.924c-.808.807-2.117.807-2.924 0l-.973-.972-.979-.98-2.434-2.434-2.442-2.442c-.807-.807-.807-2.116 0-2.924L7.386.607C8.194-.2 9.502-.2 10.31.607l7.8 7.8c.269.27.269.708 0 .979z"/>
        <path fill="#003C71" d="M12.752 9.869l-1.462 1.469-.98-.98 1.463-1.461c.27-.27.708-.27.979 0 .267.269.267.703 0 .972zM9.338 6.455L7.876 7.924l-.98-.98L8.36 5.483c.27-.268.708-.268.979 0 .267.27.267.704 0 .973z"/>
        <path fill="#F29C1F" d="M37.931 33.103h-8.275c-.381 0-.69.309-.69.69v1.379c0 .38.309.69.69.69h8.275c.381 0 .69-.31.69-.69v-1.38c0-.38-.309-.689-.69-.689z"/>
        <path fill="#E0E0E0" d="M36.717 27.993c-3.233 3.228-8.47 3.228-11.703 0l-9.828-9.834c-.258-.258-.403-.608-.403-.973s.145-.715.403-.972l.98-.98 10.8 10.807c2.154 2.153 5.645 2.153 7.8 0l1.951 1.952z"/>
    </g>
    <defs>
        <clipPath id="prefix__clip0">
            <path fill="#fff" d="M0 0H40V40H0z"/>
        </clipPath>
    </defs>
</svg>
