<svg width="280" height="192" viewBox="0 0 280 192" fill="none" xmlns="http://www.w3.org/2000/svg">
<g clip-path="url(#clip0)">
<path d="M0 100.4L280 54.2L68.2 123.2L0 100.4Z" fill="#26BED6"/>
<path d="M68.2002 123.2L99.6002 192L280 54.2L68.2002 123.2Z" fill="#003C71"/>
<path d="M99.6001 192L246.2 112.6L278 55.3999L129.8 146.5L99.6001 192Z" fill="#022B49"/>
<path d="M209.4 176.4L130.2 146.9L280 54.2L209.4 176.4Z" fill="#26BED6"/>
<path d="M103.2 124C103.2 124 108.9 124.1 122.8 119.7C122.8 119.7 126.9 131.2 132 133.6L150.4 85.4001H122.5C122.6 85.4001 113.9 113 103.2 124Z" fill="#F79321"/>
<path d="M118.8 121C118.9 120.9 118.9 120.9 118.8 121C119.1 120.9 119.3 120.8 119.5 120.8H119.6C119.8 120.7 120.1 120.7 120.4 120.6C120.6 120.5 120.9 120.5 121.1 120.4C121.2 120.4 121.2 120.4 121.3 120.3C121.5 120.2 121.7 120.2 121.9 120.1C122 120.1 122.1 120.1 122.1 120C122.4 119.9 122.6 119.8 122.9 119.8C122.9 119.8 123 120 123.1 120.2C123.5 121.1 124.4 123.4 125.6 125.8C130 112.3 141.7 85.6002 141.8 85.5002H134.9H133.5C130.6 93.1002 123.6 111.2 116.8 121.6C117.4 121.4 118.1 121.2 118.8 121Z" fill="white"/>
<path d="M196.6 124C196.6 124 190.9 124.1 177 119.7C177 119.7 172.9 131.2 167.8 133.6L149.4 85.4001H177.3C177.3 85.4001 186 113 196.6 124Z" fill="#F79321"/>
<path d="M181.1 121C181 120.9 181 120.9 181.1 121C180.8 120.9 180.6 120.8 180.4 120.8H180.3C180.1 120.7 179.8 120.7 179.5 120.6C179.3 120.5 179 120.5 178.8 120.4C178.7 120.4 178.7 120.4 178.6 120.3C178.4 120.2 178.2 120.2 178 120.1C177.9 120.1 177.8 120.1 177.8 120C177.5 119.9 177.3 119.8 177 119.8C177 119.8 176.9 120 176.8 120.2C176.4 121.1 175.5 123.4 174.3 125.8C169.9 112.3 158.2 85.6002 158.1 85.5002H165H166.4C169.3 93.1002 176.3 111.2 183.1 121.6C182.5 121.4 181.8 121.2 181.1 121Z" fill="white"/>
<path d="M198.7 47C198.7 50.5 193.9 53.4 193.1 56.7C192.3 60.1 195.4 64.8 193.9 67.9C192.4 71 186.8 71.5 184.6 74.2C182.4 76.9 183.2 82.5 180.5 84.6C177.8 86.7 172.5 84.8 169.4 86.3C166.3 87.8 164.5 93.1 161.1 93.9C157.8 94.6 153.9 90.6 150.3 90.6C146.8 90.6 142.8 94.6 139.5 93.9C136.1 93.1 134.3 87.8 131.2 86.3C128.1 84.8 122.8 86.7 120.1 84.6C117.4 82.5 118.1 76.9 116 74.2C113.9 71.5 108.2 71 106.7 67.9C105.2 64.8 108.3 60.1 107.5 56.7C106.8 53.4 101.9 50.5 101.9 47C101.9 43.5 106.7 40.6 107.5 37.3C108.3 33.9 105.2 29.2 106.7 26.1C108.2 23 113.8 22.5 116 19.8C118.2 17.1 117.4 11.5 120.1 9.40004C122.8 7.30004 128.1 9.20004 131.2 7.70004C134.3 6.20004 136.1 0.900039 139.5 0.100039C142.8 -0.599961 146.7 3.40004 150.3 3.40004C153.8 3.40004 157.8 -0.599961 161.1 0.100039C164.5 0.900039 166.3 6.20004 169.4 7.70004C172.5 9.20004 177.8 7.30004 180.5 9.40004C183.2 11.5 182.5 17.1 184.6 19.8C186.7 22.5 192.4 23 193.9 26.1C195.4 29.2 192.3 33.9 193.1 37.3C193.9 40.5 198.7 43.4 198.7 47Z" fill="#F79321"/>
<path d="M150.4 80.7C169.122 80.7 184.3 65.612 184.3 47C184.3 28.3881 169.122 13.3 150.4 13.3C131.678 13.3 116.5 28.3881 116.5 47C116.5 65.612 131.678 80.7 150.4 80.7Z" fill="#26BED6"/>
<path d="M150.4 75.9001C166.471 75.9001 179.5 62.9611 179.5 47.0001C179.5 31.0391 166.471 18.1001 150.4 18.1001C134.328 18.1001 121.3 31.0391 121.3 47.0001C121.3 62.9611 134.328 75.9001 150.4 75.9001Z" fill="white"/>
<path d="M138.4 11.6001L138 12.3001L138.5 13.0001L137.7 12.8001L137.2 13.5001V12.7001L136.4 12.5001L137.2 12.2001V11.4001L137.7 12.0001L138.4 11.6001Z" fill="white"/>
<path d="M142.1 10.6001L141.6 11.2001L142 11.9001L141.2 11.6001L140.7 12.2001V11.4001L139.9 11.1001L140.7 10.9001L140.8 10.1001L141.2 10.8001L142.1 10.6001Z" fill="white"/>
<path d="M145.8 9.90005L145.2 10.5L145.5 11.2L144.8 10.8L144.2 11.4L144.3 10.6L143.6 10.2L144.4 10.1L144.5 9.30005L144.9 10L145.8 9.90005Z" fill="white"/>
<path d="M149.6 9.7001L149 10.2001L149.3 11.0001L148.6 10.6001L148 11.1001L148.2 10.3001L147.5 9.9001H148.3L148.5 9.1001L148.8 9.9001L149.6 9.7001Z" fill="white"/>
<path d="M153.3 9.80005L152.6 10.2L152.8 11L152.2 10.5L151.5 10.9L151.8 10.1L151.2 9.60005H152L152.3 8.80005L152.5 9.60005L153.3 9.80005Z" fill="white"/>
<path d="M157.1 10.2L156.4 10.6L156.5 11.4L155.9 10.8L155.2 11.2L155.5 10.5L155 9.90005L155.8 10L156.2 9.30005L156.3 10.1L157.1 10.2Z" fill="white"/>
<path d="M160.8 11.1001L160 11.4001V12.2001L159.5 11.6001L158.8 11.9001L159.2 11.2001L158.7 10.6001L159.5 10.8001L159.9 10.1001L160 10.9001L160.8 11.1001Z" fill="white"/>
<path d="M164.4 12.3L163.6 12.5L163.5 13.3L163 12.6L162.2 12.8L162.7 12.2L162.2 11.5L163 11.8L163.5 11.2V12L164.4 12.3Z" fill="white"/>
<path d="M167.9 13.9L167.1 14L167 14.8L166.6 14.1L165.8 14.2L166.4 13.6L166 12.9L166.7 13.3L167.3 12.7L167.2 13.5L167.9 13.9Z" fill="white"/>
<path d="M171.1 15.8001L170.3 15.9001L170.1 16.7001L169.8 16.0001H169L169.6 15.5001L169.3 14.7001L170 15.1001L170.6 14.6001L170.4 15.4001L171.1 15.8001Z" fill="white"/>
<path d="M174.2 18.1H173.4L173.1 18.7999L172.9 18H172.1L172.8 17.5L172.6 16.7L173.3 17.2L174 16.7L173.7 17.5L174.2 18.1Z" fill="white"/>
<path d="M177 20.6001L176.2 20.5001L175.8 21.2001L175.6 20.4001L174.8 20.3001L175.5 19.9001L175.4 19.1001L176 19.7001L176.7 19.3001L176.4 20.0001L177 20.6001Z" fill="white"/>
<path d="M179.5 23.4L178.7 23.2001L178.3 23.9L178.2 23.1L177.4 22.9L178.1 22.6L178 21.8L178.5 22.4L179.3 22.1L178.9 22.8L179.5 23.4Z" fill="white"/>
<path d="M181.8 26.5001L181 26.2001L180.5 26.8001V26.0001L179.7 25.7001L180.5 25.4001V24.6001L181 25.3001L181.8 25.1001L181.3 25.8001L181.8 26.5001Z" fill="white"/>
<path d="M183.7 29.7001L183 29.4001L182.4 30.0001L182.5 29.2001L181.8 28.9001L182.6 28.7001L182.7 27.9001L183.1 28.6001L183.9 28.4001L183.3 29.0001L183.7 29.7001Z" fill="white"/>
<path d="M185.3 33.2L184.6 32.7999L184 33.2999L184.2 32.5L183.5 32.0999L184.3 32L184.5 31.2L184.8 32L185.6 31.9L185 32.4L185.3 33.2Z" fill="white"/>
<path d="M186.5 36.8001L185.8 36.3001L185.1 36.7001L185.3 35.9001L184.7 35.4001H185.5L185.8 34.6001L186.1 35.4001H186.9L186.2 35.9001L186.5 36.8001Z" fill="white"/>
<path d="M187.4 40.5L186.8 40L186.1 40.4L186.4 39.7L185.8 39.1L186.6 39.2L186.9 38.5L187.1 39.3L187.9 39.4L187.2 39.8L187.4 40.5Z" fill="white"/>
<path d="M187.8 44.2001L187.3 43.6001L186.5 43.9001L186.9 43.2001L186.4 42.6001L187.2 42.8001L187.6 42.1001L187.7 42.9001L188.5 43.1001L187.8 43.4001V44.2001Z" fill="white"/>
<path d="M187.9 48.1L187.4 47.4L186.6 47.6L187.1 47L186.7 46.3L187.5 46.6L188 46V46.8L188.8 47.1L188 47.3L187.9 48.1Z" fill="white"/>
<path d="M187.6 51.8001L187.2 51.1001L186.4 51.2001L186.9 50.6001L186.5 49.9001L187.2 50.2001L187.7 49.6001L187.6 50.4001L188.3 50.7001L187.5 50.9001L187.6 51.8001Z" fill="white"/>
<path d="M186.9 55.6001L186.6 54.9001L185.8 55.0001L186.4 54.4001L186.1 53.7001L186.8 54.1001L187.4 53.6001L187.2 54.4001L187.9 54.8001L187.1 54.9001L186.9 55.6001Z" fill="white"/>
<path d="M185.9 59.2001L185.6 58.4001H184.8L185.4 57.9001L185.2 57.1001L185.9 57.6001L186.6 57.1001L186.3 57.9001L187 58.4001H186.2L185.9 59.2001Z" fill="white"/>
<path d="M184.4 62.7001L184.2 61.9001L183.4 61.8001L184.1 61.4001L183.9 60.6001L184.5 61.1001L185.2 60.7001L184.9 61.5001L185.5 62.0001L184.7 61.9001L184.4 62.7001Z" fill="white"/>
<path d="M182.7 66.0001L182.6 65.2001L181.8 65.0001L182.5 64.7001L182.4 63.9001L183 64.5001L183.7 64.2001L183.3 64.9001L183.9 65.5001L183.1 65.3001L182.7 66.0001Z" fill="white"/>
<path d="M180.5 69.2V68.4L179.7 68.1L180.5 67.8V67L181 67.6L181.8 67.3L181.3 68L181.8 68.7L181 68.5L180.5 69.2Z" fill="white"/>
<path d="M178.1 72.1L178.2 71.3L177.5 71L178.3 70.8L178.4 70L178.8 70.7L179.6 70.5L179.1 71.1L179.5 71.8L178.7 71.5L178.1 72.1Z" fill="white"/>
<path d="M175.4 74.8L175.5 74L174.8 73.6L175.6 73.5L175.8 72.7L176.2 73.4L177 73.3L176.4 73.9L176.7 74.6L176 74.2L175.4 74.8Z" fill="white"/>
<path d="M172.4 77.2001L172.6 76.4001L172 75.9001H172.8L173 75.1001L173.3 75.9001H174.1L173.4 76.4001L173.7 77.2001L173 76.7001L172.4 77.2001Z" fill="white"/>
<path d="M169.3 79.2L169.6 78.5L169 78H169.8L170.1 77.3L170.3 78.1L171.1 78.2L170.4 78.6L170.6 79.4L170 78.9L169.3 79.2Z" fill="white"/>
<path d="M165.9 80.9L166.3 80.2L165.8 79.6L166.6 79.7L167 79L167.1 79.8L167.9 79.9L167.2 80.3L167.3 81.1L166.7 80.5L165.9 80.9Z" fill="white"/>
<path d="M162.4 82.3001L162.8 81.6001L162.3 80.9001L163.1 81.1001L163.6 80.4001V81.2001L164.4 81.4001L163.6 81.7001V82.5001L163.1 81.9001L162.4 82.3001Z" fill="white"/>
<path d="M158.7 83.3L159.2 82.7L158.8 82L159.6 82.3L160.1 81.7V82.5L160.9 82.8L160 83L159.9 83.8L159.5 83.1L158.7 83.3Z" fill="white"/>
<path d="M155 84L155.6 83.4L155.3 82.7L156 83.1L156.6 82.5L156.5 83.3L157.2 83.7L156.4 83.8L156.3 84.6L155.9 83.9L155 84Z" fill="white"/>
<path d="M151.2 84.3001L151.8 83.8001L151.5 83.0001L152.2 83.4001L152.8 82.9001L152.6 83.7001L153.3 84.1001H152.5L152.3 84.9001L152 84.1001L151.2 84.3001Z" fill="white"/>
<path d="M147.4 84.1001L148.1 83.7001L147.9 82.9001L148.5 83.4001L149.2 83.0001L148.9 83.8001L149.5 84.3001H148.7L148.4 85.1001L148.2 84.3001L147.4 84.1001Z" fill="white"/>
<path d="M143.7 83.7L144.4 83.3L144.3 82.5L144.9 83.1L145.6 82.7L145.3 83.4L145.9 84L145.1 83.9L144.7 84.6L144.6 83.8L143.7 83.7Z" fill="white"/>
<path d="M140 82.8L140.8 82.5V81.7L141.3 82.3L142 82L141.6 82.7L142.1 83.3L141.3 83.1L140.9 83.8L140.8 83L140 82.8Z" fill="white"/>
<path d="M136.4 81.6001L137.2 81.4001L137.3 80.6001L137.8 81.3001L138.6 81.1001L138.1 81.7001L138.5 82.4001L137.7 82.1001L137.2 82.7001V81.9001L136.4 81.6001Z" fill="white"/>
<path d="M132.9 80.0001L133.7 79.9001L133.8 79.1001L134.2 79.8001L135 79.7001L134.4 80.3001L134.8 81.0001L134.1 80.6001L133.5 81.2001L133.6 80.4001L132.9 80.0001Z" fill="white"/>
<path d="M129.7 78.0001L130.5 77.9001L130.7 77.1001L131 77.8001H131.8L131.2 78.3001L131.5 79.1001L130.8 78.7001L130.2 79.2001L130.4 78.4001L129.7 78.0001Z" fill="white"/>
<path d="M126.6 75.8001H127.4L127.7 75.1001L127.9 75.9001H128.7L128 76.4001L128.2 77.2001L127.5 76.7001L127 77.0001L127.3 76.2001L126.6 75.8001Z" fill="white"/>
<path d="M123.8 73.2001L124.6 73.3001L125 72.6001L125.2 73.4001L126 73.5001L125.3 73.9001L125.4 74.7001L124.8 74.1001L124.1 74.5001L124.4 73.8001L123.8 73.2001Z" fill="white"/>
<path d="M121.3 70.4001L122.1 70.6001L122.5 69.9001L122.6 70.7001L123.4 70.9001L122.7 71.2001L122.8 72.0001L122.3 71.4001L121.5 71.7001L121.9 71.0001L121.3 70.4001Z" fill="white"/>
<path d="M119 67.3L119.8 67.6L120.3 67V67.8L121.1 68.1L120.3 68.3V69.1L119.8 68.4L119 68.6L119.5 67.9L119 67.3Z" fill="white"/>
<path d="M117.1 64.1L117.8 64.4001L118.4 63.8L118.3 64.6L119 65L118.2 65.2L118.1 66L117.7 65.3001L116.9 65.5L117.5 64.9001L117.1 64.1Z" fill="white"/>
<path d="M115.5 60.6L116.2 61L116.8 60.5L116.6 61.3L117.3 61.7L116.5 61.8L116.3 62.6L116 61.8L115.2 61.9L115.8 61.4L115.5 60.6Z" fill="white"/>
<path d="M114.3 57L114.9 57.5L115.6 57.1L115.4 57.9L116 58.4H115.2L114.9 59.2L114.7 58.4H113.9L114.6 57.9L114.3 57Z" fill="white"/>
<path d="M113.5 53.3L114.1 53.8L114.8 53.4001L114.5 54.1L115.1 54.7001L114.3 54.6L114 55.3L113.8 54.5L113 54.4001L113.7 54L113.5 53.3Z" fill="white"/>
<path d="M113 49.6001L113.5 50.2001L114.3 49.9001L113.9 50.6001L114.4 51.2001L113.6 51.0001L113.2 51.7001L113.1 50.9001L112.3 50.7001L113 50.4001V49.6001Z" fill="white"/>
<path d="M113 45.8L113.5 46.5L114.3 46.3L113.8 46.9001L114.2 47.6L113.4 47.3L112.9 47.9001V47.1L112.1 46.8L112.9 46.6L113 45.8Z" fill="white"/>
<path d="M113.3 42L113.7 42.7L114.5 42.6L114 43.2L114.4 43.9L113.7 43.6L113.2 44.2L113.3 43.4L112.6 43.1L113.4 42.9L113.3 42Z" fill="white"/>
<path d="M113.9 38.3L114.2 39L115 38.9001L114.4 39.5L114.7 40.2001L114 39.8L113.4 40.3L113.6 39.5L112.9 39.1L113.7 39L113.9 38.3Z" fill="white"/>
<path d="M115 34.6001L115.3 35.4001H116.1L115.5 35.9001L115.7 36.7001L115 36.2001L114.3 36.7001L114.6 35.9001L113.9 35.4001H114.7L115 34.6001Z" fill="white"/>
<path d="M116.5 31.1001L116.7 31.9001L117.5 32.0001L116.8 32.4001L117 33.2001L116.4 32.7001L115.7 33.1001L116 32.3001L115.4 31.8001L116.2 31.9001L116.5 31.1001Z" fill="white"/>
<path d="M118.3 27.8L118.4 28.6L119.2 28.8L118.5 29.1L118.6 29.9L118 29.3L117.3 29.6L117.7 28.9L117.2 28.3L118 28.5L118.3 27.8Z" fill="white"/>
<path d="M120.4 24.6001V25.4001L121.2 25.7001L120.4 26.0001V26.8001L119.9 26.2001L119.1 26.5001L119.6 25.8001L119.1 25.1001L119.9 25.3001L120.4 24.6001Z" fill="white"/>
<path d="M122.8 21.7L122.7 22.5L123.4 22.7999L122.6 23L122.5 23.7999L122.1 23.1L121.3 23.2999L121.8 22.7L121.4 22L122.2 22.2999L122.8 21.7Z" fill="white"/>
<path d="M125.5 19.1001L125.4 19.9001L126.1 20.3001L125.3 20.4001L125.1 21.2001L124.7 20.5001L123.9 20.6001L124.5 20.0001L124.2 19.3001L124.9 19.7001L125.5 19.1001Z" fill="white"/>
<path d="M128.5 16.7L128.3 17.5L128.9 18H128.1L127.9 18.7999L127.6 18H126.8L127.5 17.5L127.2 16.7L127.9 17.2L128.5 16.7Z" fill="white"/>
<path d="M131.7 14.6001L131.4 15.3001L132 15.8001H131.2L130.9 16.5001L130.7 15.7001L129.9 15.6001L130.6 15.2001L130.4 14.4001L131 14.9001L131.7 14.6001Z" fill="white"/>
<path d="M135 12.9001L134.6 13.6001L135.1 14.2001L134.3 14.1001L133.9 14.8001L133.8 14.0001L133 13.8001L133.7 13.4001L133.6 12.6001L134.2 13.2001L135 12.9001Z" fill="white"/>
<g opacity="0.2">
<path opacity="0.2" d="M168.7 24.5C163.7 20.5 157.3 18 150.4 18C134.4 18 121.3 31 121.3 47C121.3 55.3 124.8 62.7 130.3 68L168.7 24.5Z" fill="white"/>
</g>
<path d="M146 59.2V38.5999C145 38.8999 144 39.1999 143.1 39.2999C142.2 39.4999 141.3 39.5999 140.4 39.5999V32.2999C142.2 31.9999 143.8 31.4999 145 30.7999C146.3 30.0999 147.3 29.3 148.1 28.2H156.4V59.0999H146V59.2Z" fill="#F79321"/>
<path d="M161.9 59.2H138.9V65.5H161.9V59.2Z" fill="#F79321"/>
<path d="M218 128.1C227.499 128.1 235.2 126.264 235.2 124C235.2 121.736 227.499 119.9 218 119.9C208.501 119.9 200.8 121.736 200.8 124C200.8 126.264 208.501 128.1 218 128.1Z" fill="#157E89"/>
<path d="M229.6 118.2C230.4 118.8 230.8 119.6 230.5 120.2C230.3 120.6 229.9 120.7 229.7 120.8C229.7 121.5 229.6 122.3 229.6 123C229.7 123.2 229.9 123.5 229.9 123.9C230 124.7 229.6 125.2 229.4 125.4C227.6 125.2 225.8 125 224.1 124.8C224.1 124.7 223.8 124.3 223.9 123.8C224.1 123.3 224.9 123 225.6 123.3C225.8 122.7 226.1 121.7 225.9 120.5C225.9 120.2 225.8 120 225.8 119.7C226.6 119.7 227.5 119.5 228.5 119C229 118.7 229.3 118.4 229.6 118.2Z" fill="#032F51"/>
<path d="M225.7 108.9C227 112 228.3 115 229.6 118.1C229.3 118.4 229 118.6 228.6 118.8C227.6 119.3 226.7 119.5 225.9 119.5C225.8 119.2 225.7 118.9 225.7 118.7C225.2 118.6 224.8 118.5 224.3 118.4C223.4 116.7 222 114.1 220.3 110.9C220.3 110.8 220.2 110.8 220.2 110.7C219.6 108.4 219.1 106.2 218.7 104.3C218.4 102.7 217.8 99.2 217.5 94.7C217.2 90.9 217.1 88.4 217.4 85.1C217.8 81.5 218.5 79.2 218.1 79.1C217.7 79 216.5 81.9 215.2 84.9C214.1 87.4 213.3 89.6 212.7 91.2C212.7 91 212.6 90.8 212.6 90.7C211.8 92.8 211 96.1 211.1 100C211.2 102.4 211.6 104.1 211.8 105.4C212.5 108.6 213.2 113.3 213.6 119.5C212.8 119.7 211.8 119.8 210.7 119.8C209.9 119.8 209.2 119.7 208.5 119.5H208.6C207.3 114.6 206.2 110.1 205.2 106C203.9 100.5 203.4 97.9 203.4 94.4C203.4 92.8 203.6 91.2 203.9 88C204.2 85.3 204.5 83.3 205.1 77.7C205.1 77.5 205.1 77.3 205.2 77.1C205.2 76.9 205.2 76.7 205.3 76.5C207.1 77.1 209.2 77.7 211.7 78.1C214.2 78.5 215.8 78.8 218 78.6C219.4 78.4 220.7 78.1 221.7 77.7C221.3 82.1 221 86.5 220.6 91C220.6 93.3 220.9 96.1 221.7 99.2C222.9 103.5 224.4 106.7 225.7 108.9Z" fill="#003C71"/>
<path d="M218.8 104.4C219.2 106.3 219.6 108.5 220.3 110.8C217.7 105.8 216.4 103.3 215.3 100.2C214.1 96.9001 213.3 93.9 212.8 91.2C213.4 89.6 214.3 87.4001 215.3 84.9001C216.6 81.9001 217.8 78.9001 218.2 79.1001C218.5 79.2001 217.8 81.5001 217.5 85.1001C217.2 88.5001 217.3 90.9 217.6 94.7C217.9 99.3 218.5 102.8 218.8 104.4Z" fill="#032F51"/>
<path d="M226 42.3C227 43.1 226.4 44.8 226.4 45.1C226.1 46.1 225.5 46.7 225 47.1C224.1 48 222.4 49.4 219.8 50.8C219.8 50.9 219.8 51 219.8 51.1C219.6 50.9 219.4 50.7 219.3 50.5C218.9 49.7 219 48.8 219.4 48.2C219.9 47.4 220.6 47.4 220.7 46.7C220.7 46.4 220.6 46 220.4 46C220 45.9 219.6 46.9 218.9 46.9C218.7 46.9 218.5 46.8 218.4 46.7C219.1 45.9 219.2 44.8 218.7 44C218.3 43.3 217.7 43 217.2 42.9C217 42.5 216.6 41.7 216.8 40.9C217.2 39.5 218.9 39.1 219.3 39C219.6 38.9 220.8 38.7 221.4 39.2C221.8 39.6 221.5 40 222 40.4C222.6 40.9 223.3 40.4 223.9 40.9C224.1 41.1 224.3 41.4 224.3 42.2C224.5 42 225.4 41.8 226 42.3Z" fill="#542535"/>
<path d="M223.3 66.9C223 70.4 222.7 73.9 222.4 77.4C222.2 77.5 222 77.5 221.8 77.6C221.8 77.7 221.8 77.8 221.8 77.9C220.8 78.3 219.5 78.6 218.1 78.8C215.9 79 214.2 78.7 211.8 78.3C209.4 77.9 207.2 77.3 205.4 76.7C205.4 76.3 205.5 75.9 205.5 75.4C206.7 72.9 207.9 70.1 208.9 67.1C209.8 64.3 210.6 61.7 211.1 59.3C212.1 59.7 213.3 59.5 214 58.7C214.6 58 214.7 57 214.3 56.1C213.1 56.4 211.1 56.8 208.8 56.6C205 56.1 202.4 54.2 200.4 52.6C197.2 50 195.1 47.1 193.7 44.6C193.4 43.4 193.2 42.3 193 41.3C193.3 41.1 193.6 40.8 194.1 40.7C194.6 40.5 195.1 40.4 195.6 40.4C195.7 40.8 195.8 41.2 196.1 41.8C197.2 44.2 198.6 46.1 198.6 46.1C200.2 48.2 202.1 50.5 205.3 51.7C205.4 51.7 207.8 52.6 208.2 52C208.3 51.9 208.2 51.8 208.2 51.6C208.7 51.8 209.3 51.9 209.9 52C210.4 52.1 210.9 52.2 211.4 52.2C210 50.9 208.1 48.8 206.6 45.7C205.7 43.9 205.2 42.2 204.9 40.8C204.9 39.9 205 39.1 204.9 37.4C204.9 37.3 204.9 37.2 204.9 37C205.5 36.9 206.2 36.9 206.9 37.1C207.2 37.2 207.5 37.2 207.7 37.3C207.7 37.4 207.7 37.5 207.7 37.6C207.6 39.1 208.1 40.2 209.1 42.4C210 44.4 211 46.8 213.3 48.8C214.4 49.7 215.5 50.3 216.3 50.7C216.5 51.6 217.2 52.3 218 52.5C218.8 52.8 219.7 52.6 220.4 52.1C221.2 52.5 222.5 53.4 223.4 55C224.2 56.6 224.1 58.2 224.1 58.8C223.7 61.5 223.5 64.2 223.3 66.9Z" fill="#9FC43A"/>
<path d="M213.7 120C214.3 121.1 214.2 122.3 213.5 122.9C213 123.3 212.5 123.3 212.2 123.3C208.9 123 205.6 122.7 202.3 122.4C202.6 122 203.1 121.5 203.7 121.1C205.6 119.8 207.7 119.7 208.6 119.8C209.3 119.9 210 120 210.8 120.1C211.9 120.1 212.9 120 213.7 119.8C213.7 119.8 213.7 119.9 213.7 120Z" fill="#032F51"/>
<path d="M220.8 46.5999C220.8 47.1999 220 47.2999 219.5 48.0999C219.1 48.6999 219 49.6 219.4 50.4C219.5 50.7 219.7 50.9 219.9 51C219.9 51.3 219.8 51.4999 219.8 51.7999C219.9 51.7999 220.1 51.9 220.3 52C219.6 52.5 218.7 52.6 217.9 52.4C217.1 52.1 216.4 51.3999 216.2 50.5999C216.3 50.6999 216.5 50.6999 216.6 50.7999C216.7 50.2999 216.7 49.7999 216.8 49.2999C216.4 49.0999 215.9 48.9 215.5 48.7C215.5 48 215.5 46.8999 216 45.5999C216.5 44.3999 217.1 43.5 217.6 43C217.6 43 217.5 42.9 217.4 42.7C217.8 42.8 218.5 43.0999 218.9 43.7999C219.4 44.5999 219.2 45.7 218.6 46.5C218.7 46.6 218.9 46.7 219.1 46.7C219.8 46.7 220.2 45.6999 220.6 45.7999C220.6 45.9999 220.8 46.2999 220.8 46.5999Z" fill="#F0A87D"/>
<path d="M214.3 56.1001C214.7 57.0001 214.6 58.0001 214 58.7001C213.3 59.5001 212.2 59.8001 211.1 59.3001C210.6 61.7001 209.8 64.4001 208.9 67.1001C207.9 70.1001 206.7 72.9001 205.5 75.4001C206 71.4001 206.9 63.2001 207.4 58.7001C205.4 58.3001 204 57.7001 203 57.2001C199.3 55.3001 197.3 52.4001 196.6 51.4001C195.7 50.0001 195.2 48.8001 194.7 47.6001C194.2 46.5001 193.9 45.5001 193.7 44.6001C195 47.1001 197.1 50.0001 200.4 52.6001C202.4 54.2001 205 56.2001 208.8 56.6001C211.2 56.8001 213.1 56.4001 214.3 56.1001Z" fill="#6E9B41"/>
<path d="M211.3 52.1001C210.8 52.1001 210.3 52.0001 209.8 51.9001C209.2 51.8001 208.6 51.6001 208.1 51.5001C207.9 51.0001 207 50.3001 206.2 49.0001C205 47.0001 204.9 45.0001 204.7 42.6001C204.6 41.7001 204.7 41.2001 204.7 40.6001C205 42.0001 205.5 43.7001 206.4 45.5001C208.1 48.7001 210 50.8001 211.3 52.1001Z" fill="#6E9B41"/>
<path d="M207.9 33C208 35 207.6 35.9 207.5 37.2C207.3 37.1 207 37 206.7 37C205.9 36.8 205.3 36.9 204.7 36.9C204.6 35.6 204.4 34.3 204.4 34.3C204.2 32.7 204 31.9 203.8 30.2C203.6 28.5 203.5 27.5 203.9 27.3C204.3 27.1 205.1 28.1 205.6 29C206.7 31 206.4 33.1 206.6 33.1C206.8 33.1 207 30.4 207.3 30.4C207.6 30.6 207.9 31.8 207.9 33Z" fill="#F0A87D"/>
<path d="M195.5 39.7001C195.5 39.9001 195.6 40.1001 195.6 40.3001C195.2 40.3001 194.7 40.4001 194.1 40.6001C193.7 40.8001 193.3 41.0001 193 41.2001C193 41.1001 192.9 41.0001 192.9 40.8001C192.4 38.7001 191.6 35.7001 189.9 32.1001C190.6 32.3001 191.6 32.7001 192.4 33.6001C193.6 35.0001 193.7 37.0001 193.9 36.9001C194 36.9001 194 36.6001 194.1 36.1001C194.3 34.9001 194.2 34.4001 194.3 34.3001C194.6 34.2001 195.4 35.6001 195.5 37.1001C195.7 38.2001 195.4 38.5001 195.5 39.7001Z" fill="#F0A87D"/>
</g>
<defs>
<clipPath id="clip0">
<rect width="280" height="192" fill="white"/>
</clipPath>
</defs>
</svg>
