<svg width="268" height="202" viewBox="0 0 268 202" fill="none" xmlns="http://www.w3.org/2000/svg">
<path d="M25.1 190.7C38.9623 190.7 50.2 187.476 50.2 183.5C50.2 179.524 38.9623 176.3 25.1 176.3C11.2377 176.3 0 179.524 0 183.5C0 187.476 11.2377 190.7 25.1 190.7Z" fill="#157E89"/>
<path d="M145.3 196.3C164.74 196.3 180.5 192.942 180.5 188.8C180.5 184.658 164.74 181.3 145.3 181.3C125.86 181.3 110.1 184.658 110.1 188.8C110.1 192.942 125.86 196.3 145.3 196.3Z" fill="#157E89"/>
<path fill-rule="evenodd" clip-rule="evenodd" d="M15.8 175.8C15.8 175.8 15.1 179.2 15.2 180.3C15.3 181.4 14.8 181.7 16.1 182C17.4 182.3 18.5 182.5 19.1 182C19.7 181.5 19.7 181.2 20.7 181.6C21.7 182 23.8 183.6 30.8 183.3C37.8 183 39.6 182.3 39.8 180.7C40 179.1 39.4 177.8 37.8 177.9C36.2 178 32.9 175.9 30.5 175.2C28 174.5 27.1 173.4 27.1 173.4C27.1 173.4 19.5 173.1 15.8 175.8Z" fill="#032F51"/>
<path fill-rule="evenodd" clip-rule="evenodd" d="M35.8 71.3C35.8 71.3 33.2 104.4 33.1 120.8C33 137.2 30 154.8 29.4 162C28.9 169.2 29.4 174.7 28.8 175.8C28.2 176.9 22 179.1 19.3 179.4C16.6 179.7 16.6 177.9 16.6 176C16.5 174.1 16.6 153.3 16.3 136.5C16 119.6 11.6 74.1 11.6 74.1L35.8 71.3Z" fill="#032F51"/>
<path fill-rule="evenodd" clip-rule="evenodd" d="M13.5001 180.2C13.5001 180.2 12.8001 183.6 12.9001 184.7C13.0001 185.8 12.5001 186.1 13.8001 186.4C15.1001 186.7 16.2001 186.9 16.8001 186.4C17.4001 185.9 17.4001 185.6 18.4001 186C19.4001 186.4 21.5001 188 28.5001 187.7C35.5001 187.4 37.3001 186.7 37.5001 185.1C37.7001 183.5 37.1001 182.2 35.5001 182.3C33.9001 182.4 30.6001 180.3 28.2001 179.6C25.7001 178.9 24.8001 177.8 24.8001 177.8C24.8001 177.8 17.2001 177.4 13.5001 180.2Z" fill="#032F51"/>
<path fill-rule="evenodd" clip-rule="evenodd" d="M31.5 72.6001C31.5 72.6001 28.9 105.7 28.8 122.1C28.7 138.5 25.7 156.1 25.1 163.3C24.6 170.5 25.1 176 24.5 177.1C23.9 178.2 17.7 180.4 15 180.7C12.3 181 12.3 179.2 12.3 177.3C12.2 175.4 12.3 154.6 12 137.8C11.7 120.9 7.30005 75.4001 7.30005 75.4001L31.5 72.6001Z" fill="#003C71"/>
<path fill-rule="evenodd" clip-rule="evenodd" d="M9.70003 24.7999C9.20003 25.0999 3.30003 27.4999 3.20003 42.4999C3.10003 58.4999 7.90003 68.2999 7.40003 75.0999C6.80003 81.8999 4.20003 90.4999 6.30003 91.0999C8.40003 91.7999 13 92.3999 24.1 91.7999C35.1 91.0999 38.9 91.1999 38.5 88.6999C38.1 86.1999 36.5 80.5999 35.9 73.3999C35.3 66.1999 35.8 63.5999 35.4 60.4999C35 57.3999 34.8 52.8999 34.8 52.8999C34.8 52.8999 27.4 32.9999 26.4 31.1999C25.5 29.4999 10.2 24.5999 9.70003 24.7999Z" fill="#F79321"/>
<path fill-rule="evenodd" clip-rule="evenodd" d="M69.3001 36.3001L67.3001 35.7001L67.8001 36.1001L66.0001 39.1001L70.5001 40.5001L70.6001 40.0001L67.0001 38.9001L68.1001 36.5001L67.0001 38.9001L70.6001 40.0001L70.7001 39.8001C70.9001 38.9001 71.1001 38.1001 71.2001 37.2001V37.0001L69.3001 36.3001ZM70.4001 41.5001L71.4001 41.4001C71.6001 41.3001 71.6001 41.0001 71.6001 40.9001C71.7001 40.6001 71.7001 40.3001 71.8001 40.0001C71.8001 39.8001 71.9001 39.6001 71.9001 39.4001C72.0001 39.0001 72.1001 38.5001 72.1001 38.1001C72.1001 37.9001 72.2001 37.5001 72.2001 37.3001C72.2001 36.9001 71.7001 36.8001 71.5001 36.8001H71.3001L70.4001 41.5001ZM66.4001 35.5001L64.5001 35.1001L61.2001 40.3001L63.3001 40.5001L66.4001 35.5001Z" fill="#F9C842"/>
<path fill-rule="evenodd" clip-rule="evenodd" d="M62 51.6001L58.7 50.3001L58.4 51.0001L62.1 52.7001L62.5 51.3001L62 51.6001ZM58.9 49.6001L58.7 50.2001L62 51.5001V51.3001C62 51.1001 61.9 50.9001 61.8 50.6001C61.7 50.2001 61.6 50.0001 61.6 49.6001V49.4001L61.4 49.5001C60.5 49.8001 59.9 49.9001 58.9 49.7001V49.6001ZM67.8 36.0001L68.6 36.3001L67.8 35.7001C67.4 35.4001 67 35.5001 66.6 35.5001H66.5L63.5 40.4001L63.7 40.5001C63.8 40.5001 63.9 40.6001 64 40.7001C64.4 40.9001 64.8 41.0001 65.1 41.2001C65.6 41.4001 66.5 41.7001 66.8 42.1001C67 42.2001 67.8 42.4001 68 42.2001C68.2 41.9001 69.8 41.2001 70.2 41.2001H70.3V40.7001L66 39.2001C65.9 39.2001 65.9 39.1001 65.9 39.0001L67.8 36.0001Z" fill="#111318"/>
<path fill-rule="evenodd" clip-rule="evenodd" d="M64.5001 35.1001L71.2001 36.8001C71.2001 36.8001 71.3001 36.5001 71.4001 36.5001C71.5001 36.5001 72.2001 36.4001 72.2001 36.9001C72.2001 37.3001 71.9001 41.0001 71.3001 41.3001C70.8001 41.6001 70.2001 41.7001 70.2001 41.5001C70.2001 41.3001 70.3001 41.1001 70.3001 41.1001L67.8001 40.2001C67.8001 40.2001 64.0001 41.4001 63.3001 41.4001C62.6001 41.4001 60.8001 40.9001 60.9001 40.7001C61.1001 40.4001 64.5001 35.1001 64.5001 35.1001Z" fill="#F79321"/>
<path fill-rule="evenodd" clip-rule="evenodd" d="M68.8001 36.3C68.8001 36.3 67.7001 35.3 67.3001 35.3C66.8001 35.3 66.5001 35.4001 66.2001 35.7001C66.0001 36.0001 57.9001 51 58.1001 51.3C58.3001 51.7 62.2001 53.3 62.2001 53.3C62.2001 53.3 63.0001 52.0001 62.7001 51.4001C62.4001 50.8001 61.7001 50.1 61.8001 49.1C61.9001 48.1 62.0001 47.8 62.0001 47.8C62.0001 47.8 64.2001 42 65.1001 42C66.1001 42 67.1001 43.1 67.8001 42.5C68.5001 41.9 68.6001 41.7001 69.2001 41.4001C69.9001 41.1001 70.5001 40.8 70.3001 40.5C70.1001 40.2 66.0001 39.1 66.0001 39.1L67.7001 36L68.8001 36.3Z" fill="#542535"/>
<path fill-rule="evenodd" clip-rule="evenodd" d="M3.59998 48.8C5.49998 61.3 7.89998 69.1 7.39998 75.1C6.79998 81.9 4.19998 90.5 6.29998 91.1C8.39998 91.8 13 92.4001 24.1 91.8001C27.7 91.6001 30.9 91.3 33.5 91C24.7 90.1 15.4 88.5 12.9 85.4001C7.89997 79.3001 9.19998 61.3001 9.19998 59.4001C9.19998 57.5001 7.79998 65 7.99998 67.1C7.99998 68.9 4.49998 51.8 3.59998 48.8Z" fill="#A55F19"/>
<path fill-rule="evenodd" clip-rule="evenodd" d="M12.3 22.6001C12.2 22.7001 12 22.8001 11.7 22.8001C11.1 22.8001 11.2 22.4001 10.7 23.3001C10.2 24.2001 9.8 25.6001 9.6 26.0001C9.6 26.1001 9.5 26.1001 9.5 26.2001C10.1 26.9001 12.3 27.0001 16.4 30.9001C20.5 34.9001 21.1 37.4001 21.9 36.5001C22.7 35.6001 23.4 34.7001 23.5 34.0001C23.6 33.3001 22.1 31.0001 22.1 31.0001C22.1 31.0001 23.9 33.1001 24.1 33.5001C24.3 33.9001 24.9 36.4001 25 36.0001C25.1 35.6001 25.1 34.7001 25.9 34.0001C26.3 33.7001 26.6 33.4001 26.9 33.3001C26.9 33.2001 27 33.1001 27 33.0001C27.5 32.3001 21.2 27.1001 21.2 27.1001C21.2 27.1001 18 24.7001 15.3 23.3001C14.3 23.0001 13.3 22.7001 12.3 22.6001Z" fill="#A55F19"/>
<path fill-rule="evenodd" clip-rule="evenodd" d="M28.4 6.60005C28.4 6.60005 29.6 11.8001 29.7 16.9001C29.8 22.0001 27.8 24.8001 27.8 24.8001C27.8 24.8001 23.4 23.7001 22.9 24.9001C22.4 26.0001 21.3 30.7001 21.3 30.7001C21.3 30.7001 14.9 25.1001 14.5 24.5001C14 23.8001 13 23.5001 13 23.1001C13 22.7001 13.1 21.9001 13.2 21.1001C13.3 20.3001 10.9 9.80005 15.2 7.30005C19.5 4.70005 27.9 4.50005 28.4 6.60005Z" fill="#FFA786"/>
<path fill-rule="evenodd" clip-rule="evenodd" d="M13 22.2C13 22.2 13.4 21 14.3 20C15.2 19 16 18.4 15.7 17.2C15.3 16 14.4 13 16 12.7C17.6 12.3 18.6 12.9 18.8 14.2C19 15.5 19.4 15.7 19.8 15.1C20.2 14.5 20.3 12.8 21.6 12.2C22.9 11.6 23.2 11 23.3 9.99999C23.4 8.99999 23.3 6.49999 25.1 6.59999C26.9 6.69999 28.6 8.79999 29.5 8.19999C30.4 7.49999 30.5 2.39999 25.5 0.69999C20.4 -1.00001 16.6 1.09999 13.6 2.19999C10.5 3.29999 10.4 8.09999 10.3 12.2C10.1 16.4 12.7 19.4 13 22.2Z" fill="#542535"/>
<path fill-rule="evenodd" clip-rule="evenodd" d="M55.5 44.6999C55.5 44.6999 57.5 42.4999 59.6 42.1999C61.7 41.8999 63.9 43.0999 64.7 43.6999C65.4 44.2999 65.1 45.2999 65.2 45.4999C65.3 45.6999 65.1 46.2999 64.8 46.6999C64.5 47.0999 64.8 46.6999 64.4 47.5999C64 48.4999 63.6 48.5999 63.6 48.5999C63.6 48.5999 63.5 49.3999 62.5 49.8999C61.5 50.2999 61.7 49.6999 60.8 50.0999C59.9 50.3999 58 49.6999 57.3 49.6999C56.6 49.5999 55.3 46.4999 55.5 44.6999Z" fill="#FFA786"/>
<path fill-rule="evenodd" clip-rule="evenodd" d="M5.09998 41.5C5.09998 41.5 10.7 60 27 68.7C32 71 35.6 68.7 35.6 68.7L34.5 58.5L5.19998 40L5.09998 41.5Z" fill="#A55F19"/>
<path fill-rule="evenodd" clip-rule="evenodd" d="M17.8 38.1L32.6 59.5001L55.3 44.7001C55.3 44.7001 56.8 49.7001 58.1 49.9001C53.4 53.4001 33.5 72.5 28.3 68.7001C22.3 64.4001 6.59997 48.9001 5.19997 40.0001C4.69997 37.1001 9.59997 27.4001 17.8 38.1Z" fill="#F79321"/>
<path fill-rule="evenodd" clip-rule="evenodd" d="M58.5 165.7C54.5 165.7 51 166.2 48.9 166.8H47V168.2C47 169.6 52.1 170.7 58.4 170.7C64.7 170.7 69.8 169.6 69.8 168.2V166.8H67.9C66.1 166.2 62.5 165.7 58.5 165.7Z" fill="#A55F19"/>
<path fill-rule="evenodd" clip-rule="evenodd" d="M58.5 169.4C64.8 169.4 69.9 168.3 69.9 166.9C69.9 165.5 64.8 164.4 58.5 164.4C52.2 164.4 47.1 165.5 47.1 166.9C47.1 168.3 52.3 169.4 58.5 169.4Z" fill="#A55F19"/>
<path fill-rule="evenodd" clip-rule="evenodd" d="M59.0999 93.4001H57.4999H56.8999V166.6C57.3999 166.7 57.8999 166.8 58.5999 166.8C59.2999 166.8 59.7999 166.7 60.2999 166.6V93.4001H59.0999Z" fill="#F79321"/>
<path fill-rule="evenodd" clip-rule="evenodd" d="M61.6 103.9H55.5C55.3 103.9 55.1 104.1 55.1 104.3V107.1C55.1 107.3 55.3 107.5 55.5 107.5H61.6C61.8 107.5 62 107.3 62 107.1V104.3C62 104.1 61.8 103.9 61.6 103.9Z" fill="#A55F19"/>
<path fill-rule="evenodd" clip-rule="evenodd" d="M60.3999 92.1001H56.6999C56.4999 92.1001 56.2999 92.3001 56.2999 92.5001V98.0001C56.2999 98.2001 56.4999 98.4001 56.6999 98.4001H60.3999C60.5999 98.4001 60.7999 98.2001 60.7999 98.0001V92.5001C60.6999 92.3001 60.5999 92.1001 60.3999 92.1001Z" fill="#A55F19"/>
<path fill-rule="evenodd" clip-rule="evenodd" d="M60.3999 102.7H56.6999C56.4999 102.7 56.2999 102.9 56.2999 103.1V108.6C56.2999 108.8 56.4999 109 56.6999 109H60.3999C60.5999 109 60.7999 108.8 60.7999 108.6V103.1C60.6999 102.9 60.5999 102.7 60.3999 102.7Z" fill="#A55F19"/>
<path fill-rule="evenodd" clip-rule="evenodd" d="M61.6 103.9L41.6 135.2L41.8 138.9L61.6 107.6V103.9Z" fill="#B31E1E"/>
<path fill-rule="evenodd" clip-rule="evenodd" d="M38.7 197C34.7 197 31.2 197.5 29.1 198.1H27.2V199.5C27.2 200.9 32.2999 202 38.5999 202C44.8999 202 50 200.9 50 199.5V198.1H48.0999C46.2999 197.4 42.7 197 38.7 197Z" fill="#A55F19"/>
<path fill-rule="evenodd" clip-rule="evenodd" d="M38.6999 200.6C44.9999 200.6 50.0999 199.5 50.0999 198.1C50.0999 196.7 44.9999 195.6 38.6999 195.6C32.3999 195.6 27.2999 196.7 27.2999 198.1C27.2999 199.5 32.3999 200.6 38.6999 200.6Z" fill="#A55F19"/>
<path fill-rule="evenodd" clip-rule="evenodd" d="M39.2 124.6H37.6H37V197.8C37.5 197.9 38 198 38.7 198C39.4 198 39.9 197.9 40.4 197.8V124.6H39.2Z" fill="#F79321"/>
<path fill-rule="evenodd" clip-rule="evenodd" d="M40.6 123.4H37C36.8 123.4 36.6 123.6 36.6 123.8V129.3C36.6 129.5 36.8 129.7 37 129.7H40.6C40.8 129.7 41 129.5 41 129.3V123.8C40.9 123.5 40.8 123.4 40.6 123.4Z" fill="#A55F19"/>
<path fill-rule="evenodd" clip-rule="evenodd" d="M41.7999 135.2H40.9999V134.4C40.9999 134.2 40.7999 134 40.5999 134H36.9999C36.7999 134 36.5999 134.2 36.5999 134.4V135.2H35.7999C35.5999 135.2 35.3999 135.4 35.3999 135.6V138.4C35.3999 138.6 35.5999 138.8 35.7999 138.8H36.5999V139.8C36.5999 140 36.7999 140.2 36.9999 140.2H40.5999C40.7999 140.2 40.9999 140 40.9999 139.8V138.8H41.7999C41.9999 138.8 42.1999 138.6 42.1999 138.4V135.6C42.1999 135.3 41.9999 135.2 41.7999 135.2Z" fill="#A55F19"/>
<path d="M99.7 42.3001L96.6 46.8001C96 47.7001 94.7 47.9001 93.8 47.3001L81.8 39.2001C80.9 38.6001 80.6 37.3001 81.3 36.4001L84.4 31.9001C85 31.0001 86.3 30.8001 87.2 31.4001L99.2 39.5001C100.1 40.2001 100.4 41.4001 99.7 42.3001Z" fill="#26BED6"/>
<path d="M174.9 173C176.9 174 177.9 175.9 177.4 177.3C177.1 178.2 176.3 178.6 175.8 178.8C175.9 180.4 176 182 176.1 183.7C176.4 184 176.8 184.6 177 185.5C177.4 187.2 176.6 188.5 176.4 188.8C172.4 188.8 168.3 188.8 164.3 188.8C164.2 188.7 163.4 187.7 163.7 186.7C164 185.6 165.6 184.7 167.4 185.2C167.7 183.8 168 181.5 167.4 178.8C167.3 178.2 167.1 177.7 166.9 177.2C168.6 176.9 170.6 176.3 172.7 174.9C173.6 174.2 174.3 173.5 174.9 173C174.9 172.9 174.9 172.9 174.9 173Z" fill="#032F51"/>
<path d="M163.8 153.5C167.5 160 171.2 166.4 174.9 172.9C174.3 173.6 173.6 174.2 172.8 174.8C170.8 176.2 168.7 176.9 167 177.1C166.8 176.5 166.5 175.9 166.2 175.4C165.2 175.3 164.1 175.2 163.1 175.1C160.5 171.5 156.7 166.2 152.2 159.6C152.1 159.5 152 159.3 151.9 159.2C149.9 154.2 148.2 149.5 146.9 145.3C145.8 141.8 143.5 134.2 141.6 124.3C140 116 139 110.6 138.8 103C138.6 95 139.6 89.7 138.8 89.6C137.9 89.4 135.9 96.2 133.8 103.3C132.1 109.2 130.8 114.2 129.8 117.9C129.7 117.5 129.5 117.1 129.4 116.7C128.3 121.6 127.2 129 128.5 137.7C129.3 143 130.6 146.7 131.6 149.6C134 156.5 137 166.7 139.5 180.4C137.8 181 135.6 181.6 133.1 181.9C131.3 182.1 129.6 182.1 128.2 181.9C128.3 181.9 128.4 181.9 128.5 181.9C124.2 171.3 120.5 161.6 117.3 153C112.9 141.1 111.1 135.5 110.2 127.7C109.8 124.1 114.4 102.9 114.3 90.3C114.3 89.8 114.3 89.4 114.3 88.9C114.3 88.5 114.3 88.1 114.3 87.6C118.4 88.5 118.6 89.2 124.1 89.5C129.7 89.7 133.5 90 138.4 88.9C141.6 88.2 144.3 87.1 146.5 86C146.9 95.9 147.3 105.8 147.7 115.7C148.4 120.7 149.7 126.9 152.4 133.7C155.9 142.1 160.2 148.8 163.8 153.5Z" fill="#003C71"/>
<path d="M147 145.3C148.3 149.5 149.9 154.1 152 159.2C145 148.9 141.3 143.5 138 137.1C134.5 130.2 131.9 123.7 130 117.9C130.9 114.2 132.2 109.2 134 103.3C136.1 96.3 138.1 89.3999 139 89.5999C139.8 89.6999 138.8 94.9999 139 103C139.2 110.6 140.2 116 141.8 124.3C143.7 134.2 145.9 141.8 147 145.3Z" fill="#032F51"/>
<path d="M133.5 3.99991C136.3 4.09991 137.7 7.89991 137.9 8.49991C138.7 10.6999 138.4 12.5999 138.2 13.8999C137.7 16.6999 136.6 21.2999 133.7 27.1999C133.8 27.3999 133.9 27.5999 134 27.7999C133.4 27.6999 132.9 27.5999 132.3 27.2999C130.6 26.3999 129.6 24.5999 129.4 22.9999C129.3 20.9999 130.5 19.7999 129.7 18.5999C129.3 17.9999 128.6 17.4999 128.1 17.6999C127.2 17.9999 127.9 20.3999 126.6 21.2999C126.2 21.5999 125.7 21.5999 125.4 21.5999C125.6 19.2999 124.3 17.1999 122.4 16.2999C120.8 15.5999 119.2 15.8999 118.3 16.1999C117.3 15.7999 115.7 14.8999 114.9 13.0999C113.7 9.99991 116.2 7.09991 116.8 6.49991C117.3 5.89991 119 3.99991 120.9 4.19991C122.1 4.39991 122.2 5.39991 123.5 5.59991C125.2 5.79991 126 3.89991 127.6 3.99991C128.2 3.99991 129.1 4.39991 130.1 5.79991C130.3 5.49991 131.7 3.99991 133.5 3.99991Z" fill="#542535"/>
<path d="M124.1 39.3999C125.2 41.1999 125.2 43.4999 124.1 45.1999C122.8 47.0999 121.9 48.1999 119.5 47.4999C118.5 57.0999 117.1 56.0999 115.1 65.1999C113.6 72.1999 116.6 78.5999 114.6 84.4999C114.5 75.4999 114.5 57.7999 114.5 47.6999C110 47.3999 113.7 43.6999 114.7 43.6999C119.8 43.5999 121.4 40.4999 124.1 39.3999Z" fill="#6E9B41"/>
<path d="M95.7 45.8999C96 46.0999 96.5 47.1999 96.8 47.2999C97.1 48.0999 97.7 49.0999 97.3 49.9999C97 50.6999 95.1 50.4999 94.6 50.6999C94.4 50.5999 94.2 50.4999 94 50.3999C90.7 48.7999 87.7 46.2999 87.2 45.1999C87.3 45.0999 86.5 44.1999 86.4 43.2999C86 41.2999 91 43.0999 91.4 43.4999C90.1 41.6999 90.8 41.6999 92.8 43.0999C94.2 44.0999 94.1 44.8999 95.7 45.8999Z" fill="#F0A87D"/>
<path d="M147 61C147.3 68.8 147.6 76.6 147.9 84.4C147.5 84.6 147.1 84.8 146.7 85C146.7 85.3 146.7 85.5 146.7 85.8C144.5 86.9 141.8 88 138.6 88.7C133.7 89.8 129.9 89.5 124.3 89.3C118.8 89.1 118.6 88.3 114.5 87.4C114.5 86.6 114.5 85.6 114.5 84.5C116.5 78.6 113.6 72.2 115 65.2C116.4 58.8 119 43.3 117.5 48C116 52.7 114.5 67.4 109.1 65.3C106.7 64.4 92.5 52.4 93.1 49.8C96.5 52.1 96.5 47.1 96.9 47.9C96.9 49.1 105.6 53 108.8 56.9C109.2 52.7 113.5 35.7 117.7 33.9C121.5 32.9 125.1 31.1 127 31.7C127.7 33.5 128.8 30 130.7 30.4C132.6 30.8 134.5 30.2 135.9 29C137.8 29.7 141 31.2 143.4 34.7C145.7 38.1 145.9 41.5 145.9 42.9C146.4 49 146.7 55 147 61Z" fill="#9FC43A"/>
<path d="M139.9 181.2C141.6 183.4 141.6 186.1 140.2 187.6C139.3 188.6 138 188.8 137.4 188.8C130 189 122.5 189.2 115.1 189.4C115.7 188.4 116.6 187.2 117.9 186.1C121.7 182.6 126.3 182 128.5 181.9C130 182 131.7 182.1 133.4 181.9C135.9 181.7 138 181.1 139.8 180.4C139.8 180.6 139.8 180.9 139.9 181.2Z" fill="#032F51"/>
<path d="M129.8 18.6C130.6 19.8 129.3 21 129.5 23C129.6 24.6 130.6 26.5 132.4 27.3C133 27.6 133.6 27.8 134.1 27.8C134.4 28.3 134.7 28.8 135 29.3C135.3 29.2 135.7 29.1 136.2 29C135.6 30.8 134.2 32.2 132.4 32.8C130.5 33.4 128.4 33 126.8 31.7C127.1 31.6 127.4 31.6 127.7 31.5C127.1 30.5 126.6 29.6 126 28.6C124.9 28.8 123.9 29.1 122.8 29.3C121.8 28.1 120.4 26 119.6 23.1C118.8 20.3 118.8 17.9 119 16.5C118.9 16.5 118.6 16.4 118.3 16.3C119.3 15.9 120.8 15.6 122.4 16.4C124.4 17.3 125.6 19.4 125.4 21.7C125.7 21.7 126.2 21.7 126.6 21.4C127.9 20.5 127.2 18.1 128.1 17.8C128.7 17.6 129.4 18.1 129.8 18.6Z" fill="#F0A87D"/>
<path d="M237.8 194.5C254.479 194.5 268 191.142 268 187C268 182.858 254.479 179.5 237.8 179.5C221.121 179.5 207.6 182.858 207.6 187C207.6 191.142 221.121 194.5 237.8 194.5Z" fill="#157E89"/>
<path d="M202.5 42.3001L199.4 46.8001C198.8 47.7001 197.5 47.9001 196.6 47.3001L184.6 39.2001C183.7 38.6001 183.4 37.3001 184.1 36.4001L187.2 31.9001C187.8 31.0001 189.1 30.8001 190 31.4001L202 39.5001C202.9 40.2001 203.2 41.4001 202.5 42.3001Z" fill="#26BED6"/>
<path d="M249.1 133.4C246.8 126.6 250.6 120.4 250 115.4C249.6 105.5 249.3 95.6 248.9 85.7C247 86.8 244.6 87.9 241.9 88.6C237.7 89.7 234.3 89.4 229.5 89.2C224.7 89 224.6 88.2 220.9 87.3C220.9 87.8 220.9 88.3 220.9 88.6C220.9 89.1 220.9 89.5 220.9 90C221 102.6 216.9 123.8 217.3 127.4C218.1 135.2 222.9 181.7 224.5 181.6C226.7 181.4 230.7 180.8 232.2 180.1C230 166.8 233.8 144.8 233.3 137.4C232.7 128.7 233.1 121.3 234.1 116.4C234.2 116.8 234.3 117.2 234.4 117.6C236.1 123.4 233.3 129.9 236.4 136.8C239.2 143.2 245.1 177.6 245.3 178.3C246.8 178 251.7 178.6 252.2 178C251.5 173.1 252.1 142.1 249.1 133.4Z" fill="#F0A87D"/>
<path d="M198.5 45.8999C198.8 46.0999 199.3 47.1999 199.6 47.2999C199.9 48.0999 200.5 49.0999 200.1 49.9999C199.8 50.6999 197.9 50.4999 197.4 50.6999C197.2 50.5999 197 50.4999 196.8 50.3999C193.5 48.7999 190.5 46.2999 190 45.1999C190.1 45.0999 189.3 44.1999 189.2 43.2999C188.8 41.2999 193.8 43.0999 194.2 43.4999C192.9 41.6999 193.6 41.6999 195.6 43.0999C197 44.0999 196.9 44.8999 198.5 45.8999Z" fill="#F0A87D"/>
<path d="M249.8 60.9999C250.1 68.7999 257.9 122.3 258.2 130.1C257.8 130.3 231 130.3 225.4 130.1C219.9 129.9 217.4 130.2 213.2 129.3C215 113.3 218.1 86.8999 218.2 85.7999C219.2 79.6999 219.6 77.4999 219.5 65.5999C219.5 59.0999 221.8 43.2999 220.3 48.0999C218.8 52.7999 217.3 67.4999 211.9 65.3999C209.5 64.4999 195.3 52.4999 195.9 49.8999C199.3 52.1999 199.3 47.1999 199.7 47.9999C199.7 49.1999 208.4 53.0999 211.6 56.9999C212 52.7999 216.3 35.7999 220.5 33.9999C224.3 32.9999 227.9 31.1999 229.8 31.7999C230.5 33.5999 231.6 30.0999 233.5 30.4999C235.4 30.8999 237.3 30.2999 238.7 29.0999C240.6 29.7999 243.8 31.2999 246.2 34.7999C248.5 38.1999 248.7 41.5999 248.7 42.9999C249.2 48.9999 249.5 54.9999 249.8 60.9999Z" fill="#26BED6"/>
<path d="M232.8 181.1C234.1 183.2 234.1 185.7 233 187.1C232.3 188 231.3 188.2 230.9 188.2C225.3 188.4 219.7 188.6 214.1 188.8C214.6 187.8 215.3 186.7 216.2 185.7C219.1 182.5 222.5 181.9 224.1 181.7C225.2 181.8 226.5 181.9 227.8 181.7C229.7 181.5 231.3 180.9 232.6 180.3C232.7 180.6 232.7 180.9 232.8 181.1Z" fill="#032F51"/>
<path d="M253.1 177.9C254.4 180 254.4 182.5 253.3 183.9C252.6 184.8 251.6 185 251.2 185C245.6 185.2 240 185.4 234.4 185.6C234.9 184.6 235.6 183.5 236.5 182.5C239.4 179.3 242.8 178.7 244.4 178.5C245.5 178.6 246.8 178.7 248.1 178.5C250 178.3 251.6 177.7 252.9 177.1C253 177.4 253 177.6 253.1 177.9Z" fill="#032F51"/>
<path d="M232.6 18.5998C233.4 19.7998 232.1 20.9998 232.3 22.9998C232.4 24.5998 233.4 26.4998 235.2 27.2998C235.8 27.5998 236.4 27.7998 236.9 27.7998C237.2 28.2998 237.5 28.7998 237.8 29.2998C238.1 29.1998 238.5 29.0998 239 28.9998C238.4 30.7998 237 32.1998 235.2 32.7998C233.3 33.3998 231.2 32.9998 229.6 31.6998C229.9 31.5998 230.2 31.5998 230.5 31.4998C229.9 30.4998 229.4 29.5998 228.8 28.5998C227.7 28.7998 226.7 29.0998 225.6 29.2998C224.6 28.0998 223.2 25.9998 222.4 23.0998C221.6 20.2998 221.6 17.8998 221.8 16.4998C221.7 16.4998 222.1 16.5998 221.8 16.4998C222.8 16.0998 223.6 15.5998 225.3 16.2998C227.3 17.1998 228.5 19.2998 228.3 21.5998C228.6 21.5998 229.1 21.5998 229.5 21.2998C230.8 20.3998 230.1 17.9998 231 17.6998C231.5 17.5998 232.2 18.0998 232.6 18.5998Z" fill="#F0A87D"/>
<path d="M234.7 5.09989C237.5 5.19989 241.2 12.5999 240.9 13.8999C240.4 16.6999 254.5 40.3999 251.6 46.2999C250.4 47.7999 244.5 50.8999 240.3 46.1999C237.2 42.7999 236.4 32.1999 235.6 28.9999C235.1 27.0999 232.3 24.4999 232.2 22.8999C232.1 20.8999 233.3 19.6999 232.5 18.4999C232.1 17.8999 231.4 17.3999 230.9 17.5999C230 17.8999 230.7 20.2999 229.4 21.1999C229 21.4999 228.5 21.4999 228.2 21.4999C228.4 19.1999 227.1 17.0999 225.2 16.1999C223.6 15.4999 222.7 15.9999 221.7 16.3999C220.7 15.9999 218.4 14.8999 217.6 13.0999C216.4 9.99989 218.8 7.09989 219.5 6.49989C223.4 2.99989 232.9 5.09989 234.7 5.09989Z" fill="#542535"/>
</svg>
